# xmcd
#
# Track frame offsets:
#	150
#	17609
#	36013
#	61923
#
# Disc length: 1038
#
# Revision: 1
# Processed by: cddbd v1.5.1PL0 Copyright (c) Steve Scherf et al.
# Submitted via: FreeRIP 2.20 
# Normalized: r0:TRMNUM
#
DISCID=26040c04
DTITLE=A Few Good Men - A Few Good men
DYEAR=2003
DGENRE=Country
TTITLE0=A Few Good Men - Winter Morning
TTITLE1=A Few Good Men - Falling Behind
TTITLE2=A Few Good Men - Last Call
TTITLE3=A Few Good Men - Silver and Gold
EXTD=
EXTT0=
EXTT1=
EXTT2=
EXTT3=
PLAYORDER=
